<?xml version="1.0" encoding="utf-8"?>
<!-- Generator: Adobe Illustrator 25.4.1, SVG Export Plug-In . SVG Version: 6.00 Build 0)  -->
<svg version="1.1" id="Camada_1" xmlns="http://www.w3.org/2000/svg" xmlns:xlink="http://www.w3.org/1999/xlink" x="0px" y="0px"
	 viewBox="0 0 475 450" style="enable-background:new 0 0 475 450;" xml:space="preserve">
<style type="text/css">
	.st0{clip-path:url(#SVGID_00000105407388616609196730000015767109384128864170_);}
	.st1{opacity:0.2;fill:#CFCCCC;enable-background:new    ;}
	.st2{opacity:0.1;fill:#CFCCCC;enable-background:new    ;}
	.st3{fill:#224DC2;}
	.st4{fill:#1F4489;}
	.st5{fill:#479EE8;}
	.st6{fill:#2A5FD1;}
	.st7{fill:#4795FA;}
	.st8{opacity:0.17;}
	.st9{fill:#FEB187;}
	.st10{fill:#F88B65;}
	.st11{fill:#333049;}
	.st12{fill:#28243F;}
	.st13{fill:#DC9266;}
	.st14{fill:#0C2898;}
	.st15{fill:#133AAF;}
	.st16{fill:#2273DB;}
	.st17{fill:#22A4FD;}
	.st18{opacity:0.65;fill:#224DC2;enable-background:new    ;}
	.st19{fill:#4895FA;}
	.st20{fill:#52FFFD;}
	.st21{fill:#2293F0;}
	.st22{fill:#22B2FF;}
	.st23{fill:#67A5FF;}
	.st24{fill:#5FFFFF;}
	.st25{fill:#226EE5;}
	.st26{fill:#111F9A;}
	.st27{fill:#1159C9;}
	.st28{fill:#111B54;}
	.st29{fill:#34C6E7;}
	.st30{fill:#34DCE7;}
	.st31{fill:#2D61F0;}
	.st32{opacity:0.3;fill:#34DCE7;enable-background:new    ;}
	.st33{opacity:0.3;fill:#CFCCCC;enable-background:new    ;}
	.st34{opacity:0.66;fill:#34DCE7;enable-background:new    ;}
	.st35{fill:#CFCCCC;}
	.st36{fill:none;stroke:#34FBE7;stroke-linecap:round;stroke-linejoin:round;}
	.st37{opacity:0.3;fill:#CDCCCC;enable-background:new    ;}
	.st38{opacity:0.66;fill:#CDCCCC;enable-background:new    ;}
	.st39{fill:#CDCCCC;}
	.st40{fill:#CDCCCC;stroke:#34FBE7;stroke-linecap:round;stroke-linejoin:round;}
	.st41{opacity:0.3;fill:#CECCCC;enable-background:new    ;}
	.st42{fill:#CECCCC;}
	.st43{opacity:0.66;fill:#CECCCC;enable-background:new    ;}
</style>
<g>
	<defs>
		<rect id="SVGID_1_" width="475" height="450"/>
	</defs>
	<clipPath id="SVGID_00000145763961012348164110000012652775900481654423_">
		<use xlink:href="#SVGID_1_"  style="overflow:visible;"/>
	</clipPath>
	
		<g id="banner-image" transform="translate(38 6)" style="clip-path:url(#SVGID_00000145763961012348164110000012652775900481654423_);">
		<ellipse id="Ellipse_1" class="st1" cx="204.3" cy="405.4" rx="107.1" ry="32.1"/>
		<ellipse id="Ellipse_2" class="st2" cx="204.5" cy="397" rx="78.3" ry="23.5"/>
		<ellipse id="Ellipse_3" class="st2" cx="204.5" cy="395.3" rx="58.7" ry="17.6"/>
		<rect id="Rectangle_2" x="59.5" y="258.3" class="st3" width="280.9" height="7"/>
		<path id="Rectangle_3" class="st3" d="M99.4,105h204.9c2.8,0,5,2.3,5,5.1v136.4c0,2.8-2.3,5.1-5,5.1H99.4c-2.8,0-5.1-2.3-5.1-5.1
			V110C94.4,107.2,96.6,105,99.4,105z"/>
		<path id="Path_1" class="st4" d="M303.3,105.6H100.4c-3.3,0-6,2.7-6,6v125.5h215V111.6C309.3,108.3,306.6,105.6,303.3,105.6z"/>
		<path id="Path_2" class="st5" d="M303.3,109.1H100.4c-3.3,0-6,2.7-6,6v0.4c0-3.3,2.7-6,6-6h202.9c3.3,0,6,2.7,6,6l0,0v-0.4
			C309.3,111.8,306.6,109.1,303.3,109.1L303.3,109.1z"/>
		<path id="Path_4598" class="st6" d="M102.8,114.4H301v117.3H102.8V114.4z"/>
		<g id="Group_1" transform="translate(109.677 120.299)">
			<path id="Rectangle_5" class="st7" d="M20.6,9.3h112.6c0.6,0,1.2,0.5,1.2,1.2v0.4c0,0.6-0.5,1.2-1.2,1.2H20.6
				c-0.6,0-1.2-0.5-1.2-1.2v-0.4C19.5,9.8,20,9.3,20.6,9.3z"/>
			<path id="Rectangle_6" class="st7" d="M1.5,0h72C74.3,0,75,0.7,75,1.5v0.6c0,0.8-0.7,1.5-1.5,1.5h-72C0.7,3.6,0,2.9,0,2.1V1.5
				C0,0.7,0.7,0,1.5,0z"/>
			<path id="Rectangle_7" class="st7" d="M1.2,9.3h7.6c0.6,0,1.2,0.5,1.2,1.2v0.4c0,0.6-0.5,1.2-1.2,1.2H1.2C0.5,12,0,11.5,0,10.9
				v-0.4C0,9.8,0.5,9.3,1.2,9.3z"/>
			<path id="Rectangle_8" class="st7" d="M1.9,17.9h58c0.4,0,0.7,0.3,0.7,0.7v0.3c0,0.4-0.3,0.7-0.7,0.7h-58c-0.4,0-0.7-0.3-0.7-0.7
				v-0.3C1.2,18.2,1.5,17.9,1.9,17.9z"/>
			<path id="Rectangle_9" class="st7" d="M1.9,24.9h58c0.4,0,0.7,0.3,0.7,0.7v0.3c0,0.4-0.3,0.7-0.7,0.7h-58c-0.4,0-0.7-0.3-0.7-0.7
				v-0.3C1.2,25.3,1.5,24.9,1.9,24.9z"/>
			<path id="Rectangle_10" class="st7" d="M1.9,32h58c0.4,0,0.7,0.3,0.7,0.7V33c0,0.4-0.3,0.7-0.7,0.7h-58c-0.4,0-0.7-0.3-0.7-0.7
				v-0.3C1.2,32.3,1.5,32,1.9,32z"/>
			<path id="Rectangle_11" class="st7" d="M1.9,39h58c0.4,0,0.7,0.3,0.7,0.7V40c0,0.4-0.3,0.7-0.7,0.7h-58c-0.4,0-0.7-0.3-0.7-0.7
				v-0.3C1.2,39.3,1.5,39,1.9,39z"/>
			<path id="Rectangle_12" class="st7" d="M1.9,46H11c0.4,0,0.7,0.3,0.7,0.7V47c0,0.4-0.3,0.7-0.7,0.7H1.9c-0.4,0-0.7-0.3-0.7-0.7
				v-0.3C1.2,46.3,1.5,46,1.9,46z"/>
			<path id="Rectangle_13" class="st7" d="M17.3,46h9.1c0.4,0,0.7,0.3,0.7,0.7V47c0,0.4-0.3,0.7-0.7,0.7h-9.1
				c-0.4,0-0.7-0.3-0.7-0.7v-0.3C16.5,46.3,16.9,46,17.3,46z"/>
			<path id="Rectangle_14" class="st7" d="M32.6,46h9.1c0.4,0,0.7,0.3,0.7,0.7V47c0,0.4-0.3,0.7-0.7,0.7h-9.1
				c-0.4,0-0.7-0.3-0.7-0.7v-0.3C31.9,46.3,32.2,46,32.6,46z"/>
			<path id="Rectangle_15" class="st7" d="M48,46h9.1c0.4,0,0.7,0.3,0.7,0.7V47c0,0.4-0.3,0.7-0.7,0.7H48c-0.4,0-0.7-0.3-0.7-0.7
				v-0.3C47.3,46.3,47.6,46,48,46z"/>
			<path id="Rectangle_16" class="st7" d="M63.4,46h9.1c0.4,0,0.7,0.3,0.7,0.7V47c0,0.4-0.3,0.7-0.7,0.7h-9.1
				c-0.4,0-0.7-0.3-0.7-0.7v-0.3C62.7,46.3,63,46,63.4,46z"/>
			<path id="Rectangle_17" class="st7" d="M78.8,46h9.1c0.4,0,0.7,0.3,0.7,0.7V47c0,0.4-0.3,0.7-0.7,0.7h-9.1
				c-0.4,0-0.7-0.3-0.7-0.7v-0.3C78,46.3,78.4,46,78.8,46z"/>
			<path id="Rectangle_18" class="st7" d="M1.9,53h58c0.4,0,0.7,0.3,0.7,0.7V54c0,0.4-0.3,0.7-0.7,0.7h-58c-0.4,0-0.7-0.3-0.7-0.7
				v-0.3C1.2,53.3,1.5,53,1.9,53z"/>
			<path id="Rectangle_19" class="st7" d="M107.5,29h71.2c0.6,0,1,0.5,1,1v0.4c0,0.6-0.5,1-1,1h-71.2c-0.6,0-1-0.5-1-1V30
				C106.5,29.4,106.9,29,107.5,29z"/>
			<path id="Rectangle_20" class="st7" d="M107.5,39.5h71.2c0.6,0,1,0.5,1,1v0.4c0,0.6-0.5,1-1,1h-71.2c-0.6,0-1-0.5-1-1v-0.4
				C106.5,39.9,106.9,39.5,107.5,39.5z"/>
			<path id="Rectangle_21" class="st7" d="M107.5,49.3h71.2c0.6,0,1,0.5,1,1v0.4c0,0.6-0.5,1-1,1h-71.2c-0.6,0-1-0.5-1-1v-0.4
				C106.5,49.8,106.9,49.3,107.5,49.3z"/>
			<path id="Rectangle_22" class="st7" d="M107.5,59.2h71.2c0.6,0,1,0.5,1,1v0.4c0,0.6-0.5,1-1,1h-71.2c-0.6,0-1-0.5-1-1v-0.4
				C106.5,59.6,106.9,59.2,107.5,59.2z"/>
			<path id="Rectangle_23" class="st7" d="M107.5,69h71.2c0.6,0,1,0.5,1,1v0.4c0,0.6-0.5,1-1,1h-71.2c-0.6,0-1-0.5-1-1V70
				C106.5,69.5,106.9,69,107.5,69z"/>
			<path id="Rectangle_24" class="st7" d="M107.5,78.8h36.8c0.6,0,1,0.5,1,1v0.4c0,0.6-0.5,1-1,1h-36.8c-0.6,0-1-0.5-1-1v-0.4
				C106.5,79.3,106.9,78.8,107.5,78.8z"/>
			<path id="Rectangle_25" class="st7" d="M131.3,85.5H168c0.6,0,1,0.5,1,1v0.4c0,0.6-0.5,1-1,1h-36.8c-0.6,0-1-0.5-1-1v-0.4
				C130.3,86,130.7,85.5,131.3,85.5z"/>
			<path id="Rectangle_26" class="st7" d="M131.3,92.5H168c0.6,0,1,0.5,1,1v0.4c0,0.6-0.5,1-1,1h-36.8c-0.6,0-1-0.5-1-1v-0.4
				C130.3,92.9,130.7,92.5,131.3,92.5z"/>
			<path id="Rectangle_27" class="st7" d="M10.8,92.5h17.3c0.6,0,1,0.5,1,1v0.4c0,0.6-0.5,1-1,1H10.8c-0.6,0-1-0.5-1-1v-0.4
				C9.8,92.9,10.2,92.5,10.8,92.5z"/>
			<path id="Rectangle_28" class="st7" d="M10.8,86.7h17.3c0.6,0,1,0.5,1,1v0.4c0,0.6-0.5,1-1,1H10.8c-0.6,0-1-0.5-1-1v-0.4
				C9.8,87.2,10.2,86.7,10.8,86.7z"/>
			<path id="Rectangle_29" class="st7" d="M10.8,81h17.3c0.6,0,1,0.5,1,1v0.4c0,0.6-0.5,1-1,1H10.8c-0.6,0-1-0.5-1-1V82
				C9.8,81.5,10.2,81,10.8,81z"/>
			<path id="Rectangle_30" class="st7" d="M10.8,75.3h17.3c0.6,0,1,0.5,1,1v0.4c0,0.6-0.5,1-1,1H10.8c-0.6,0-1-0.5-1-1v-0.4
				C9.8,75.7,10.2,75.3,10.8,75.3z"/>
		</g>
		<g id="Group_2" transform="translate(102.757 114.36)" class="st8">
			<path id="Path_3" class="st5" d="M198.2,74.4V53.4l-64,64h21.1L198.2,74.4z"/>
			<path id="Path_4" class="st5" d="M88.1,117.3L198.2,7.2V0h-49L31.9,117.3H88.1z"/>
			<path id="Path_5" class="st5" d="M0,51v47.4L98.4,0H51L0,51z"/>
		</g>
		<g id="Group_35" transform="translate(131.14 104.599)">
			<rect id="Rectangle_33" x="60.5" y="64.5" class="st9" width="22" height="16.6"/>
			<path id="Path_6" class="st10" d="M60.5,77.5c7.1,2.6,14.9,2.6,22,0v4.8l-6.1,1.1l-5,1l-11-3.6L60.5,77.5z"/>
			<path id="Rectangle_34" class="st11" d="M43.4,164.9h55.9c4.8,0,8.6,3.9,8.6,8.6v13.5c0,4.8-3.9,8.6-8.6,8.6H43.4
				c-4.8,0-8.6-3.9-8.6-8.6v-13.5C34.8,168.8,38.7,164.9,43.4,164.9z"/>
			<path id="Path_7" class="st12" d="M107.7,183.8c-37.8,11.1-72.6-0.1-72.6-0.1c1.4,7,7.6,12,14.7,12H93
				C100.1,195.7,106.2,190.7,107.7,183.8z"/>
			<g id="Group_4" transform="translate(16.573)">
				<g id="Group_3" transform="translate(29.753)">
					<path id="Path_8" class="st11" d="M28.7,15.4L44.1,0c2.3,4.9,2.1,10.6-0.5,15.4L49.9,9c0,0,2.9,8.6-2.9,13.2l5.2-5.2
						c0,0,3.3,9.7-8.9,17.2L28.7,15.4z"/>
					<path id="Path_9" class="st12" d="M41.3,31.6l4.8,0.6l0,0c0-0.4,1.3-13.8-14.1-20.2l-3.3,3.3L41.3,31.6z"/>
					<ellipse id="Ellipse_4" class="st9" cx="43.6" cy="48.1" rx="6.8" ry="6.8"/>
					<ellipse id="Ellipse_5" class="st9" cx="6.8" cy="48.1" rx="6.8" ry="6.8"/>
					<path id="Rectangle_35" class="st11" d="M21.7,15.1h6.9c9.8,0,17.8,8,17.8,17.8v23.6c0,9.8-8,17.8-17.8,17.8h-6.9
						c-9.8,0-17.8-8-17.8-17.8V32.9C3.9,23.1,11.9,15.1,21.7,15.1z"/>
					<path id="Path_13" class="st11" d="M20.7,71.7v5.5l1.6-1.6l1.7,1.7l1.6-1.6l1.6,1.6v-5.7L20.7,71.7z"/>
					<path id="Path_14" class="st11" d="M26.3,71.3l0.8,4.7l1.3-1.3l1.4,1.4l1.3-1.3l1.4,1.4v-4.7L26.3,71.3z"/>
					<path id="Path_15" class="st11" d="M15.3,71.4V76l1.3-1.3l1.4,1.4l1.3-1.3l1.4,1.4l0.5-4.8L15.3,71.4z"/>
				</g>
				<path id="Path_17" class="st9" d="M5.4,123.5L3,138.3h14v-16.7l-9.9-2.1"/>
				<path id="Path_18" class="st13" d="M14.5,126.5H4.9l0.5-3L14.5,126.5z"/>
				<path id="Path_19" class="st14" d="M30.2,85.5c-10,4.9-18.9,6.4-30.2,36.2l17,5.7C17,127.4,28.2,99.5,30.2,85.5z"/>
				<path id="Path_20" class="st9" d="M103.2,123.5l2.4,14.8h-14v-16.7l9.9-2.1"/>
				<path id="Path_21" class="st13" d="M94.1,126.5h9.6l-0.5-3L94.1,126.5z"/>
				<path id="Path_22" class="st14" d="M78.4,85.5c10,4.9,18.9,6.4,30.2,36.2l-17,5.7C91.6,127.4,80.4,99.5,78.4,85.5z"/>
				<path id="Path_23" class="st3" d="M59.8,183.7h-11c-18.7,0-30.4-8.9-30.4-29.5L14.7,114c0.1-18.8,15.3-34,34.1-34.1h11
					c18.8,0.1,34,15.3,34.1,34.1L88,151.8C88,175.6,78.5,183.7,59.8,183.7z"/>
				<path id="Path_24" class="st15" d="M82.1,88.3c-21.8,3.4-50.9,0.5-55.7,0c-5,4.3-8.6,10-10.4,16.3l3.4,0.4l13.8,1.9l17.7,2.8
					l16.3,1l18.7-2.1l6-5.7C90,97.3,86.6,92.3,82.1,88.3z"/>
			</g>
			<g id="Group_5" transform="translate(39.25 195.733)">
				<path id="Path_25" class="st3" d="M6.1,91c0,3,4.3,2.6,9.5,2.6s9.5,0.5,9.5-2.6s-4.3-5.5-9.5-5.5S6.1,88,6.1,91z"/>
				<path id="Path_26" class="st11" d="M0,0l15.4,89.6c3.1,1,6.5,1,9.7,0v-68L0,0z"/>
				<path id="Path_27" class="st12" d="M25.1,23.1l-0.8-1.5l-0.9-0.1L3,19.3l3,15.8c2.5,0.1,13.8-5.1,18.9,8l0.2-0.9L25.1,23.1z"/>
				<path id="Path_28" class="st3" d="M58.3,91c0,3-4.3,2.6-9.5,2.6s-9.5,0.5-9.5-2.6s4.3-5.5,9.5-5.5S58.3,88,58.3,91z"/>
				<path id="Path_29" class="st11" d="M64.3,0L48.9,89.6c-3.1,1-6.5,1-9.7,0v-68L64.3,0z"/>
				<path id="Path_30" class="st12" d="M39.3,23.1l0.8-1.5l0.9-0.1l20.3-2.1l-3,15.8c-2.5,0.1-13.8-5.1-18.9,8l-0.2-0.9L39.3,23.1z"
					/>
			</g>
			<g id="Group_34" transform="translate(0 92.692)">
				<path id="Rectangle_36" class="st16" d="M69,180.6v-58.4c0-0.8,0.6-1.4,1.4-1.4h2.1c0.8,0,1.4,0.6,1.4,1.4v58.4
					c0,0.8-0.6,1.4-1.4,1.4h-2.1C69.6,182,69,181.4,69,180.6z"/>
				<path id="Rectangle_37" class="st17" d="M70.1,119.1H74c3,0,5.4,2.4,5.4,5.4l0,0v17.6c0,3.7-3,6.7-6.7,6.7h-2.6
					c-3.7,0-6.7-3-6.7-6.7c0,0,0,0,0,0v-16.3C63.4,122.1,66.4,119.1,70.1,119.1z"/>
				<path id="Path_31" class="st18" d="M79.4,127.3c-5.1-2.3-10.9-2.3-16,0v-5.7c5.1-2.3,10.9-2.3,16,0V127.3z"/>
				<g id="Group_11" transform="translate(0 52.256)">
					<g id="Group_6" transform="translate(0 2.732)">
						<path id="Path_32" class="st3" d="M34.8,49.2H24.6C11,49.2,0,38.2,0,24.6C0,11.5,10.2,0.8,23.3,0c0.1,0,0.3,0,0.4,0h0.9
							c1.5,0,2.7,1.3,2.7,2.8c0,1.5-1.2,2.7-2.7,2.7C14,5.5,5.5,14,5.5,24.6S14,43.7,24.6,43.7l0,0h10.2c1.5,0,2.7,1.3,2.7,2.8
							C37.4,48,36.2,49.2,34.8,49.2L34.8,49.2z"/>
					</g>
					<g id="Group_10" transform="translate(13.75)">
						<g id="Group_9" transform="translate(0)">
							<g id="Group_7" transform="translate(0)">
								<path id="Rectangle_38" class="st19" d="M3.8,0h10.3C16.3,0,18,1.7,18,3.8v1.5c0,2.1-1.7,3.8-3.8,3.8H3.8
									C1.7,9.2,0,7.4,0,5.3V3.8C0,1.7,1.7,0,3.8,0z"/>
							</g>
							<g id="Group_8" transform="translate(0 0.001)">
								<path id="Path_33" class="st3" d="M4.6,0.5h8.8c2.4,0,4.4,1.9,4.6,4.3c0-0.1,0-0.2,0-0.3C18,2.1,16,0,13.4,0H4.6
									C2.1,0,0,2.1,0,4.6c0,0.1,0,0.2,0,0.3C0.2,2.4,2.2,0.5,4.6,0.5z"/>
							</g>
						</g>
					</g>
				</g>
				<g id="Group_17" transform="translate(104.111 52.256)">
					<g id="Group_12" transform="translate(0 2.732)">
						<path id="Path_34" class="st3" d="M2.7,49.2h10.2c13.6,0,24.6-11,24.6-24.6C37.5,11.5,27.3,0.8,14.2,0c-0.1,0-0.3,0-0.4,0
							h-0.9c-1.5,0-2.8,1.2-2.8,2.7c0,1.5,1.2,2.8,2.7,2.8c0,0,0.1,0,0.1,0C23.5,5.5,32,14,32,24.6s-8.6,19.1-19.1,19.1H2.7
							c-1.5,0-2.7,1.3-2.7,2.8C0.1,48,1.3,49.2,2.7,49.2L2.7,49.2z"/>
					</g>
					<g id="Group_16" transform="translate(5.731 0)">
						<g id="Group_15" transform="translate(0)">
							<g id="Group_13" transform="translate(0)">
								<path id="Rectangle_39" class="st19" d="M3.8,0h10.3C16.3,0,18,1.7,18,3.8v1.5c0,2.1-1.7,3.8-3.8,3.8H3.8
									C1.7,9.2,0,7.4,0,5.3V3.8C0,1.7,1.7,0,3.8,0z"/>
							</g>
							<g id="Group_14" transform="translate(0 0)">
								<path id="Path_35" class="st3" d="M13.4,0.5H4.6C2.2,0.5,0.2,2.4,0,4.8c0-0.1,0-0.2,0-0.3C0,2.1,2.1,0,4.6,0h8.8
									C16,0,18,2.1,18,4.6c0,0.1,0,0.2,0,0.3C17.8,2.4,15.9,0.5,13.4,0.5z"/>
							</g>
						</g>
					</g>
				</g>
				<path id="Path_890" class="st19" d="M31.7,96.4h79.4c6.1,0,11,4.9,11,11c0,6.1-4.9,11-11,11l0,0H31.7c-6.1,0-11-4.9-11-11
					C20.7,101.4,25.6,96.4,31.7,96.4z"/>
				<path id="Path_36" class="st3" d="M31.7,97.5h79.4c5.9,0,10.7,4.6,11,10.5c0-0.2,0-0.3,0-0.5c0-6.1-4.9-11-11-11H31.7
					c-6.1,0-11,4.9-11,11c0,0.2,0,0.3,0,0.5C21,102.1,25.8,97.5,31.7,97.5z"/>
				<path id="Path_37" class="st19" d="M84.8,86.6H56.2c-11.5,0-20.8-9.3-20.8-20.8l-5.2-45C30.3,9.3,39.5,0,51,0h40.8
					c11.5,0,20.8,9.3,20.8,20.8l-6.9,45C105.6,77.2,96.3,86.5,84.8,86.6z"/>
				<path id="Path_38" class="st20" d="M51,0.9h40.8c11.2,0,20.4,9,20.8,20.2l0-0.3C112.5,9.3,103.2,0,91.8,0H51
					C39.5,0,30.3,9.3,30.2,20.8l0,0.3C30.6,9.9,39.8,0.9,51,0.9z"/>
				<path id="Rectangle_41" class="st3" d="M35.6,112.9h71.6c2.3,0,4.1,1.8,4.1,4.1v1.6c0,2.3-1.8,4.1-4.1,4.1H35.6
					c-2.3,0-4.1-1.8-4.1-4.1V117C31.5,114.7,33.3,112.9,35.6,112.9z"/>
				<path id="Rectangle_42" class="st3" d="M53,122.5h36.8c1.6,0,2.8,1.3,2.8,2.8v4.1c0,1.6-1.3,2.8-2.8,2.8H53
					c-1.6,0-2.8-1.3-2.8-2.8v-4.1C50.2,123.7,51.4,122.5,53,122.5z"/>
				<path id="Path_39" class="st21" d="M36.4,113.2h70c2.6,0,4.8,2.1,4.9,4.7c0-0.1,0-0.1,0-0.2c0-2.7-2.2-4.9-4.9-4.9h-70
					c-2.7,0-4.9,2.2-4.9,4.9c0,0.1,0,0.1,0,0.2C31.6,115.3,33.8,113.2,36.4,113.2z"/>
				<path id="Rectangle_43" class="st16" d="M40.2,120.4h62.3c1.1,0,2,0.9,2,2v0.8c0,1.1-0.9,2-2,2H40.2c-1.1,0-2-0.9-2-2v-0.8
					C38.2,121.3,39.1,120.4,40.2,120.4z"/>
				<path id="Path_40" class="st22" d="M40.6,120.5h61.5c1.3,0,2.4,1,2.4,2.4c0,0,0-0.1,0-0.1c0-1.3-1.1-2.4-2.4-2.4H40.6
					c-1.3,0-2.4,1.1-2.4,2.4c0,0,0,0.1,0,0.1C38.2,121.6,39.3,120.6,40.6,120.5z"/>
				<path id="Path_41" class="st17" d="M67,185.8v-7.6c0-2.4,2-4.4,4.4-4.4l0,0c2.4,0,4.4,2,4.4,4.4v7.6"/>
				<g id="Group_18" transform="translate(36.461 183.217)">
					<path id="Path_42" class="st16" d="M1.7,10.8C0.8,10.8,0,10,0,9.1c0-0.7,0.4-1.3,1-1.6c22.1-10,47.5-10,69.6,0
						c0.9,0.4,1.2,1.4,0.8,2.3c-0.4,0.9-1.4,1.2-2.3,0.9C48,1.1,23.7,1.1,2.4,10.6C2.2,10.7,2,10.8,1.7,10.8z"/>
				</g>
				<path id="Rectangle_44" class="st3" d="M65.7,182h12c0.9,0,1.7,0.7,1.7,1.7v2.4c0,0.9-0.7,1.7-1.7,1.7h-12
					c-0.9,0-1.7-0.7-1.7-1.7v-2.4C64.1,182.7,64.8,182,65.7,182z"/>
				<path id="Rectangle_45" class="st16" d="M71.5,184.9h0.4c0.6,0,1,0.5,1,1v13.3c0,0.6-0.5,1-1,1h-0.4c-0.6,0-1-0.5-1-1v-13.3
					C70.5,185.3,71,184.9,71.5,184.9z"/>
				<path id="Path_891" class="st3" d="M71.7,195.2c1.8,0,3.3,1.5,3.3,3.3v6.2c0,1.8-1.5,3.3-3.4,3.2c-1.8,0-3.2-1.5-3.2-3.2v-6.2
					C68.4,196.7,69.9,195.2,71.7,195.2z"/>
				<g id="Group_19" transform="translate(103.122 189.729)">
					<ellipse id="Ellipse_6" class="st3" cx="6.2" cy="6.2" rx="6.2" ry="6.2"/>
					<path id="Path_43" class="st3" d="M6.2,0.2c3.4,0,6.2,2.7,6.2,6.2c0,0,0-0.1,0-0.1C12.5,2.8,9.7,0,6.2,0C2.8,0,0,2.8,0,6.2l0,0
						c0,0,0,0.1,0,0.1C0,2.9,2.8,0.2,6.2,0.2z"/>
					<ellipse id="Ellipse_7" class="st23" cx="6.2" cy="6.2" rx="3.7" ry="3.7"/>
					<ellipse id="Ellipse_8" class="st16" cx="6.2" cy="6.2" rx="1.5" ry="1.5"/>
					<path id="Path_44" class="st24" d="M6.2,4.8c0.8,0,1.5,0.6,1.5,1.5c0,0,0,0,0,0C7.7,5.4,7.1,4.7,6.2,4.8
						C5.4,4.7,4.7,5.4,4.7,6.2l0,0c0,0,0,0,0,0C4.8,5.5,5.4,4.8,6.2,4.8z"/>
				</g>
				<g id="Group_20" transform="translate(30.222 189.729)">
					<ellipse id="Ellipse_9" class="st3" cx="6.2" cy="6.2" rx="6.2" ry="6.2"/>
					<path id="Path_45" class="st16" d="M6.2,0.2c3.4,0,6.2,2.7,6.2,6.2c0,0,0-0.1,0-0.1C12.5,2.8,9.7,0,6.2,0C2.8,0,0,2.8,0,6.2
						c0,0,0,0.1,0,0.1C0,2.9,2.8,0.2,6.2,0.2z"/>
					<ellipse id="Ellipse_10" class="st23" cx="6.2" cy="6.2" rx="3.7" ry="3.7"/>
					<ellipse id="Ellipse_11" class="st16" cx="6.2" cy="6.2" rx="1.5" ry="1.5"/>
					<path id="Path_46" class="st24" d="M6.2,4.8c0.8,0,1.5,0.6,1.5,1.5c0,0,0,0,0,0C7.7,5.4,7,4.8,6.2,4.8c-0.8,0-1.5,0.6-1.5,1.4
						c0,0,0,0,0,0C4.8,5.5,5.4,4.8,6.2,4.8z"/>
				</g>
				<path id="Rectangle_47" class="st3" d="M58.7,28.6h25.4c4.7,0,8.5,3.8,8.5,8.5v3.3c0,4.7-3.8,8.5-8.5,8.5H58.7
					c-4.7,0-8.5-3.8-8.5-8.5v-3.3C50.2,32.4,54,28.6,58.7,28.6z"/>
				<path id="Path_47" class="st25" d="M82.4,28.6H60.3c-5.6,0-10.2,4.6-10.2,10.2l0,0c0,0.1,0,0.1,0,0.2c0.1-5.5,4.6-10,10.2-10
					h22.1c5.5,0,10.1,4.5,10.2,10c0-0.1,0-0.1,0-0.2l0,0C92.6,33.2,88.1,28.6,82.4,28.6z"/>
				<path id="Rectangle_48" class="st26" d="M69.3,36.3h4.1c1.5,0,2.8,1.2,2.8,2.8V115c0,1.5-1.2,2.8-2.8,2.8h-4.1
					c-1.5,0-2.8-1.2-2.8-2.8V39.1C66.6,37.5,67.8,36.3,69.3,36.3z"/>
				<g id="Group_21" transform="translate(67.596 41.362)">
					<path id="Rectangle_49" class="st27" d="M0.6,0H7c0.3,0,0.6,0.3,0.6,0.6v0.9c0,0.3-0.3,0.6-0.6,0.6H0.6C0.3,2.1,0,1.8,0,1.5
						V0.6C0,0.3,0.3,0,0.6,0z"/>
					<path id="Rectangle_50" class="st28" d="M0.6,0H7c0.3,0,0.6,0.3,0.6,0.6v0.8C7.6,1.7,7.3,2,7,2H0.6C0.3,2,0,1.7,0,1.4V0.6
						C0,0.3,0.3,0,0.6,0z"/>
				</g>
				<g id="Group_22" transform="translate(67.596 47.136)">
					<path id="Rectangle_51" class="st27" d="M0.6,0H7c0.3,0,0.6,0.3,0.6,0.6v0.9c0,0.3-0.3,0.6-0.6,0.6H0.6C0.3,2.1,0,1.8,0,1.5
						V0.6C0,0.3,0.3,0,0.6,0z"/>
					<path id="Rectangle_52" class="st28" d="M0.6,0H7c0.3,0,0.6,0.3,0.6,0.6v0.8C7.6,1.7,7.3,2,7,2H0.6C0.3,2,0,1.7,0,1.4V0.6
						C0,0.3,0.3,0,0.6,0z"/>
				</g>
				<g id="Group_23" transform="translate(67.596 52.622)">
					<path id="Rectangle_53" class="st27" d="M0.6,0H7c0.3,0,0.6,0.3,0.6,0.6v0.9c0,0.3-0.3,0.6-0.6,0.6H0.6C0.3,2.1,0,1.8,0,1.5
						V0.6C0,0.3,0.3,0,0.6,0z"/>
					<path id="Rectangle_54" class="st28" d="M0.6,0H7c0.3,0,0.6,0.3,0.6,0.6v0.8C7.6,1.7,7.3,2,7,2H0.6C0.3,2,0,1.7,0,1.4V0.6
						C0,0.3,0.3,0,0.6,0z"/>
				</g>
				<g id="Group_24" transform="translate(67.596 58.107)">
					<path id="Rectangle_55" class="st27" d="M0.6,0H7c0.3,0,0.6,0.3,0.6,0.6v0.9c0,0.3-0.3,0.6-0.6,0.6H0.6C0.3,2.1,0,1.8,0,1.5
						V0.6C0,0.3,0.3,0,0.6,0z"/>
					<path id="Rectangle_56" class="st28" d="M0.6,0H7c0.3,0,0.6,0.3,0.6,0.6v0.8C7.6,1.7,7.3,2,7,2H0.6C0.3,2,0,1.7,0,1.4V0.6
						C0,0.3,0.3,0,0.6,0z"/>
				</g>
				<g id="Group_25" transform="translate(67.596 63.593)">
					<path id="Rectangle_57" class="st27" d="M0.6,0H7c0.3,0,0.6,0.3,0.6,0.6v0.9c0,0.3-0.3,0.6-0.6,0.6H0.6C0.3,2.1,0,1.8,0,1.5
						V0.6C0,0.3,0.3,0,0.6,0z"/>
					<path id="Rectangle_58" class="st28" d="M0.6,0H7c0.3,0,0.6,0.3,0.6,0.6v0.8C7.6,1.7,7.3,2,7,2H0.6C0.3,2,0,1.7,0,1.4V0.6
						C0,0.3,0.3,0,0.6,0z"/>
				</g>
				<g id="Group_26" transform="translate(67.596 69.078)">
					<path id="Rectangle_59" class="st27" d="M0.6,0H7c0.3,0,0.6,0.3,0.6,0.6v0.9c0,0.3-0.3,0.6-0.6,0.6H0.6C0.3,2.1,0,1.8,0,1.5
						V0.6C0,0.3,0.3,0,0.6,0z"/>
					<path id="Rectangle_60" class="st28" d="M0.6,0H7c0.3,0,0.6,0.3,0.6,0.6v0.8C7.6,1.7,7.3,2,7,2H0.6C0.3,2,0,1.7,0,1.4V0.6
						C0,0.3,0.3,0,0.6,0z"/>
				</g>
				<g id="Group_27" transform="translate(67.596 74.564)">
					<path id="Rectangle_61" class="st27" d="M0.6,0H7c0.3,0,0.6,0.3,0.6,0.6v0.9c0,0.3-0.3,0.6-0.6,0.6H0.6C0.3,2.1,0,1.8,0,1.5
						V0.6C0,0.3,0.3,0,0.6,0z"/>
					<path id="Rectangle_62" class="st28" d="M0.6,0H7c0.3,0,0.6,0.3,0.6,0.6v0.8C7.6,1.7,7.3,2,7,2H0.6C0.3,2,0,1.7,0,1.4V0.6
						C0,0.3,0.3,0,0.6,0z"/>
				</g>
				<g id="Group_28" transform="translate(67.596 80.049)">
					<path id="Rectangle_63" class="st27" d="M0.6,0H7c0.3,0,0.6,0.3,0.6,0.6v0.9c0,0.3-0.3,0.6-0.6,0.6H0.6C0.3,2.1,0,1.8,0,1.5
						V0.6C0,0.3,0.3,0,0.6,0z"/>
					<path id="Rectangle_64" class="st28" d="M0.6,0H7c0.3,0,0.6,0.3,0.6,0.6v0.8C7.6,1.7,7.3,2,7,2H0.6C0.3,2,0,1.7,0,1.4V0.6
						C0,0.3,0.3,0,0.6,0z"/>
				</g>
				<g id="Group_29" transform="translate(67.596 85.535)">
					<path id="Rectangle_65" class="st27" d="M0.6,0H7c0.3,0,0.6,0.3,0.6,0.6v0.9c0,0.3-0.3,0.6-0.6,0.6H0.6C0.3,2.1,0,1.8,0,1.5
						V0.6C0,0.3,0.3,0,0.6,0z"/>
					<path id="Rectangle_66" class="st28" d="M0.6,0H7c0.3,0,0.6,0.3,0.6,0.6v0.8C7.6,1.7,7.3,2,7,2H0.6C0.3,2,0,1.7,0,1.4V0.6
						C0,0.3,0.3,0,0.6,0z"/>
				</g>
				<g id="Group_30" transform="translate(67.596 91.02)">
					<path id="Rectangle_67" class="st27" d="M0.6,0H7c0.3,0,0.6,0.3,0.6,0.6v0.9c0,0.3-0.3,0.6-0.6,0.6H0.6C0.3,2.1,0,1.8,0,1.5
						V0.6C0,0.3,0.3,0,0.6,0z"/>
					<path id="Rectangle_68" class="st28" d="M0.6,0H7c0.3,0,0.6,0.3,0.6,0.6v0.8C7.6,1.7,7.3,2,7,2H0.6C0.3,2,0,1.7,0,1.4V0.6
						C0,0.3,0.3,0,0.6,0z"/>
				</g>
				<g id="Group_31" transform="translate(67.596 96.506)">
					<path id="Rectangle_69" class="st27" d="M0.6,0H7c0.3,0,0.6,0.3,0.6,0.6v0.9c0,0.3-0.3,0.6-0.6,0.6H0.6C0.3,2.1,0,1.8,0,1.5
						V0.6C0,0.3,0.3,0,0.6,0z"/>
					<path id="Rectangle_70" class="st28" d="M0.6,0H7c0.3,0,0.6,0.3,0.6,0.6v0.8C7.6,1.7,7.3,2,7,2H0.6C0.3,2,0,1.7,0,1.4V0.6
						C0,0.3,0.3,0,0.6,0z"/>
				</g>
				<g id="Group_32" transform="translate(67.596 101.991)">
					<path id="Rectangle_71" class="st27" d="M0.6,0H7c0.3,0,0.6,0.3,0.6,0.6v0.9c0,0.3-0.3,0.6-0.6,0.6H0.6C0.3,2.1,0,1.8,0,1.5
						V0.6C0,0.3,0.3,0,0.6,0z"/>
					<path id="Rectangle_72" class="st28" d="M0.6,0H7c0.3,0,0.6,0.3,0.6,0.6v0.8C7.6,1.7,7.3,2,7,2H0.6C0.3,2,0,1.7,0,1.4V0.6
						C0,0.3,0.3,0,0.6,0z"/>
				</g>
				<g id="Group_33" transform="translate(67.596 107.477)">
					<path id="Rectangle_73" class="st27" d="M0.6,0H7c0.3,0,0.6,0.3,0.6,0.6v0.9c0,0.3-0.3,0.6-0.6,0.6H0.6C0.3,2.1,0,1.8,0,1.5
						V0.6C0,0.3,0.3,0,0.6,0z"/>
					<path id="Rectangle_74" class="st28" d="M0.6,0H7c0.3,0,0.6,0.3,0.6,0.6v0.8C7.6,1.7,7.3,2,7,2H0.6C0.3,2,0,1.7,0,1.4V0.6
						C0,0.3,0.3,0,0.6,0z"/>
				</g>
			</g>
		</g>
		<g id="Group_37" transform="translate(275.425 236.521)">
			<g id="Group_36" transform="translate(13.615 2.44)">
				<path id="Path_48" class="st29" d="M5.9,11.9c-3.3,0-6-2.7-6-6c0-3.3,2.7-6,6-6c3.3,0,6,2.7,6,6l0,0C11.9,9.2,9.2,11.9,5.9,11.9
					z M5.9,1.8C3.6,1.8,1.8,3.6,1.8,6s1.9,4.2,4.2,4.2c2.3,0,4.2-1.9,4.2-4.2c0,0,0,0,0,0C10.1,3.6,8.3,1.8,5.9,1.8L5.9,1.8z"/>
			</g>
			<path id="Path_49" class="st30" d="M19.4,0v12c0,5.3-4.3,9.6-9.7,9.7l0,0c-5.3,0-9.6-4.3-9.7-9.7V0H19.4z"/>
			<path id="Rectangle_75" class="st29" d="M0.9,20.3h17.8c0.5,0,0.9,0.4,0.9,0.9V22c0,0.5-0.4,0.9-0.9,0.9H0.9
				C0.4,22.9,0,22.5,0,22v-0.8C0,20.7,0.4,20.3,0.9,20.3z"/>
		</g>
		<g id="Group_40" transform="translate(29.609 26.79)">
			<g id="Group_38" transform="translate(0)">
				<path id="Path_50" class="st31" d="M128.2,44.4H0.4l-0.1-0.6c-1.6-7.8,3.4-15.4,11.2-16.9c3.9-0.8,8,0.1,11.3,2.4
					c4-19.8,23.2-32.6,43-28.6c12.3,2.5,22.5,11.2,27,22.9c8.8-8,22.4-7.4,30.4,1.4c3.6,4,5.6,9.1,5.6,14.5c0,1.4-0.1,2.9-0.4,4.3
					L128.2,44.4z M1.6,43H127c1.9-10.9-5.4-21.3-16.3-23.2c-1.1-0.2-2.3-0.3-3.4-0.3c-5.4,0-10.5,2.1-14.3,6l-0.8,0.8l-0.4-1.1
					C85.5,6.8,65.5-2.9,47.2,3.3C35,7.5,26.1,18,24,30.7L23.7,32l-1-0.8c-5.4-4.7-13.6-4-18.2,1.4c-2,2.3-3.1,5.3-3.1,8.4
					C1.4,41.6,1.5,42.3,1.6,43z"/>
			</g>
			<g id="Group_39" transform="translate(45.731 11.142)">
				<path id="Path_51" class="st31" d="M19.9,26.5H8.4c-1.5,0-2.8-1.2-2.8-2.8v-7.1H2.5c-1.4,0-2.5-1.1-2.5-2.5
					c0-0.7,0.3-1.3,0.7-1.8L12.4,0.7c1-1,2.6-1,3.6,0l11.6,11.6c1,1,1,2.6,0,3.6c-0.5,0.5-1.1,0.7-1.8,0.7h-3.1v7.1
					C22.7,25.3,21.5,26.5,19.9,26.5z M14.2,1.4c-0.3,0-0.6,0.1-0.8,0.3L1.8,13.3c-0.4,0.4-0.4,1.1,0,1.6c0.2,0.2,0.5,0.3,0.8,0.3H7
					v8.5c0,0.7,0.6,1.3,1.3,1.3H20c0.7,0,1.3-0.6,1.3-1.3v-8.5h4.5c0.6,0,1.1-0.5,1.1-1.1c0-0.3-0.1-0.6-0.3-0.8L14.9,1.7
					C14.7,1.5,14.4,1.4,14.2,1.4L14.2,1.4z"/>
			</g>
		</g>
		<g id="Group_43" transform="translate(220.701)">
			<g id="Group_41" transform="translate(0)">
				<path id="Path_52" class="st31" d="M52.5,18.2H0.2l0-0.2C0,17.6,0,17.2,0,16.8c0-3.3,2.6-5.9,5.9-5.9c1.2,0,2.4,0.4,3.4,1.1
					C11,3.9,18.9-1.3,27,0.3c5.1,1,9.2,4.6,11.1,9.4c3.6-3.3,9.2-3,12.4,0.6c1.5,1.6,2.3,3.7,2.3,5.9c0,0.6-0.1,1.2-0.2,1.8
					L52.5,18.2z M0.7,17.6h51.4c0.1-0.5,0.1-0.9,0.1-1.4c0-4.5-3.7-8.2-8.2-8.2c-2.2,0-4.3,0.9-5.9,2.4l-0.3,0.3l-0.2-0.5
					C35,2.8,26.9-1.2,19.4,1.4c-5,1.7-8.7,6-9.5,11.2l-0.1,0.5l-0.4-0.3c-2.2-1.9-5.6-1.6-7.5,0.6C0.8,14.5,0.4,16.1,0.7,17.6
					L0.7,17.6z"/>
			</g>
			<g id="Group_42" transform="translate(18.746 4.567)">
				<path id="Path_53" class="st31" d="M8.2,10.9H3.4c-0.6,0-1.1-0.5-1.1-1.1V6.8H1c-0.6,0-1-0.5-1-1c0-0.3,0.1-0.5,0.3-0.7l4.8-4.8
					c0.4-0.4,1.1-0.4,1.5,0l4.8,4.8c0.4,0.4,0.4,1.1,0,1.5c-0.2,0.2-0.5,0.3-0.7,0.3H9.3v2.9C9.3,10.4,8.8,10.9,8.2,10.9z M5.8,0.6
					c-0.1,0-0.2,0-0.3,0.1L0.7,5.5c-0.2,0.2-0.2,0.5,0,0.6C0.8,6.2,0.9,6.2,1,6.2h1.8v3.5c0,0.3,0.2,0.5,0.5,0.5h4.7
					c0.3,0,0.5-0.2,0.5-0.5l0,0V6.2h1.8C10.8,6.2,11,6,11,5.8c0-0.1,0-0.2-0.1-0.3L6.1,0.7C6,0.6,5.9,0.6,5.8,0.6L5.8,0.6z"/>
			</g>
		</g>
		<rect id="Rectangle_76" x="0" y="58.9" class="st32" width="178" height="0.9"/>
		<path id="Rectangle_77" class="st33" d="M0,58.9h178l0,0V160c0,4.2-3.4,7.5-7.5,7.5H7.5c-4.2,0-7.5-3.4-7.5-7.5V58.9L0,58.9z"/>
		<rect id="Rectangle_78" x="15.7" y="81.3" class="st33" width="94.8" height="34"/>
		<rect id="Rectangle_79" x="15.9" y="122.1" class="st33" width="33.3" height="10.6"/>
		<rect id="Rectangle_80" x="54.2" y="122.1" class="st33" width="56.5" height="10.6"/>
		<rect id="Rectangle_81" x="117" y="81.7" class="st33" width="51.6" height="14.7"/>
		<rect id="Rectangle_82" x="15.9" y="139" class="st33" width="152.7" height="14.7"/>
		<rect id="Rectangle_83" x="117" y="100.3" class="st33" width="51.6" height="33.5"/>
		<rect id="Rectangle_84" x="0" y="58.9" class="st33" width="178" height="17.8"/>
		<rect id="Rectangle_85" x="0" y="76.3" class="st34" width="178" height="0.3"/>
		<ellipse id="Ellipse_15" class="st6" cx="7.2" cy="67.3" rx="2.9" ry="2.9"/>
		<ellipse id="Ellipse_16" class="st6" cx="15.9" cy="67.3" rx="2.9" ry="2.9"/>
		<ellipse id="Ellipse_17" class="st6" cx="24.6" cy="67.3" rx="2.9" ry="2.9"/>
		<path id="Rectangle_86" class="st33" d="M6.7,79.2h0.9c1.4,0,2.4,1.1,2.4,2.4V158c0,1.4-1.1,2.4-2.4,2.4H6.7
			c-1.4,0-2.4-1.1-2.4-2.4V81.6C4.2,80.3,5.3,79.2,6.7,79.2z"/>
		<path id="Rectangle_87" class="st35" d="M6.8,81.7h0.4c0.5,0,1,0.4,1,1v19.4c0,0.5-0.4,1-1,1H6.8c-0.5,0-1-0.4-1-1V82.7
			C5.8,82.1,6.2,81.7,6.8,81.7z"/>
		<line id="Line_14" class="st36" x1="45.6" y1="124.5" x2="34.5" y2="124.5"/>
		<line id="Line_15" class="st36" x1="44.6" y1="129.4" x2="18.8" y2="129.4"/>
		<line id="Line_16" class="st36" x1="57.1" y1="124.5" x2="61.7" y2="124.5"/>
		<line id="Line_17" class="st36" x1="65.5" y1="124.5" x2="70.2" y2="124.5"/>
		<line id="Line_18" class="st36" x1="74" y1="124.5" x2="78.6" y2="124.5"/>
		<line id="Line_19" class="st36" x1="82.4" y1="124.5" x2="87" y2="124.5"/>
		<line id="Line_20" class="st36" x1="90.8" y1="124.5" x2="95.4" y2="124.5"/>
		<line id="Line_21" class="st36" x1="99.2" y1="124.5" x2="103.9" y2="124.5"/>
		<line id="Line_22" class="st36" x1="57.1" y1="128.1" x2="60.1" y2="128.1"/>
		<line id="Line_23" class="st36" x1="64.1" y1="128.1" x2="67" y2="128.1"/>
		<line id="Line_24" class="st36" x1="71" y1="128.1" x2="74" y2="128.1"/>
		<line id="Line_25" class="st36" x1="77.9" y1="128.1" x2="80.9" y2="128.1"/>
		<line id="Line_26" class="st36" x1="84.8" y1="128.1" x2="87.8" y2="128.1"/>
		<line id="Line_27" class="st36" x1="91.8" y1="128.1" x2="94.8" y2="128.1"/>
		<line id="Line_28" class="st36" x1="98.7" y1="128.1" x2="101.7" y2="128.1"/>
		<path id="Path_59" class="st36" d="M22.4,142.7l-3.3,3.3l3.2,3.2"/>
		<path id="Path_60" class="st36" d="M25.7,142.7l-3.3,3.3l3.2,3.2"/>
		<path id="Path_61" class="st36" d="M125.6,85.9l-3.3,3.3l3.2,3.2"/>
		<line id="Line_29" class="st36" x1="120.7" y1="104.1" x2="146.6" y2="104.1"/>
		<line id="Line_30" class="st36" x1="120.7" y1="107.3" x2="130.9" y2="107.3"/>
		<line id="Line_31" class="st36" x1="120.7" y1="112.3" x2="130.9" y2="112.3"/>
		<line id="Line_32" class="st36" x1="120.7" y1="117.3" x2="130.9" y2="117.3"/>
		<line id="Line_33" class="st36" x1="120.7" y1="122.3" x2="130.9" y2="122.3"/>
		<line id="Line_34" class="st36" x1="161.2" y1="110.3" x2="154.3" y2="110.3"/>
		<line id="Line_35" class="st36" x1="161.2" y1="113.2" x2="154.3" y2="113.2"/>
		<line id="Line_36" class="st36" x1="161.2" y1="116" x2="154.3" y2="116"/>
		<line id="Line_37" class="st36" x1="161.2" y1="118.9" x2="154.3" y2="118.9"/>
		<line id="Line_38" class="st36" x1="161.2" y1="121.7" x2="154.3" y2="121.7"/>
		<line id="Line_39" class="st36" x1="161.2" y1="124.5" x2="154.3" y2="124.5"/>
		<line id="Line_40" class="st36" x1="161.2" y1="127.4" x2="154.3" y2="127.4"/>
		<line id="Line_41" class="st36" x1="161.2" y1="130.2" x2="154.3" y2="130.2"/>
		<line id="Line_42" class="st36" x1="33.9" y1="142.7" x2="103.9" y2="142.7"/>
		<line id="Line_43" class="st36" x1="33.9" y1="146" x2="76.3" y2="146"/>
		<line id="Line_44" class="st36" x1="33.9" y1="150.5" x2="76.3" y2="150.5"/>
		<g id="Group_48" transform="translate(64.676 161.612)">
			<path id="Rectangle_88" class="st37" d="M0,0h84.2l0,0v71.5c0,4.2-3.4,7.5-7.5,7.5H7.5C3.4,79,0,75.7,0,71.5V0L0,0z"/>
			<rect id="Rectangle_89" x="11.6" y="16.6" class="st37" width="69" height="24.8"/>
			<rect id="Rectangle_90" x="11.6" y="46" class="st37" width="24.3" height="7.7"/>
			<rect id="Rectangle_91" x="39.5" y="46" class="st37" width="41.1" height="7.7"/>
			<rect id="Rectangle_92" x="0" y="0" class="st37" width="84.2" height="12.9"/>
			<rect id="Rectangle_93" x="0" y="12.7" class="st38" width="84.2" height="0.2"/>
			<ellipse id="Ellipse_21" class="st39" cx="5.2" cy="6.1" rx="2.1" ry="2.1"/>
			<ellipse id="Ellipse_22" class="st39" cx="11.6" cy="6.1" rx="2.1" ry="2.1"/>
			<path id="Path_892" class="st39" d="M17.9,4C19.1,4,20,5,20,6.1s-1,2.1-2.1,2.1s-2.1-1-2.1-2.1S16.7,4,17.9,4z"/>
			<path id="Rectangle_94" class="st37" d="M4.7,14.8h1.1c0.9,0,1.6,0.7,1.6,1.6v56c0,0.9-0.7,1.6-1.6,1.6H4.7
				c-0.9,0-1.6-0.7-1.6-1.6v-56C3.1,15.5,3.8,14.8,4.7,14.8z"/>
			<path id="Rectangle_95" class="st39" d="M4.8,16.6h0.4c0.3,0,0.6,0.3,0.6,0.6v14.3c0,0.3-0.3,0.6-0.6,0.6H4.8
				c-0.3,0-0.6-0.3-0.6-0.6V17.2C4.2,16.9,4.5,16.6,4.8,16.6z"/>
			<line id="Line_45" class="st40" x1="14.3" y1="20.1" x2="43.3" y2="20.1"/>
			<line id="Line_46" class="st40" x1="46.1" y1="20.1" x2="50.8" y2="20.1"/>
			<line id="Line_47" class="st40" x1="56" y1="20.1" x2="76.6" y2="20.1"/>
			<line id="Line_48" class="st40" x1="14.3" y1="23.1" x2="49.4" y2="23.1"/>
			<line id="Line_49" class="st40" x1="52.9" y1="22.6" x2="67.1" y2="22.6"/>
			<line id="Line_50" class="st40" x1="69.8" y1="22.6" x2="77" y2="22.6"/>
			<line id="Line_51" class="st40" x1="15.8" y1="26.8" x2="57.3" y2="26.8"/>
			<line id="Line_52" class="st40" x1="62.2" y1="26.8" x2="73.4" y2="26.8"/>
			<line id="Line_53" class="st40" x1="77" y1="30.1" x2="44.9" y2="30.1"/>
			<line id="Line_54" class="st40" x1="58.7" y1="34.6" x2="14.3" y2="34.6"/>
			<line id="Line_55" class="st40" x1="44.9" y1="37.5" x2="77.8" y2="37.5"/>
			<line id="Line_56" class="st40" x1="48.4" y1="38.9" x2="21.4" y2="38.9"/>
			<line id="Line_57" class="st40" x1="14.3" y1="30.1" x2="26.1" y2="30.1"/>
			<line id="Line_58" class="st40" x1="33.2" y1="47.8" x2="25.1" y2="47.8"/>
			<line id="Line_59" class="st40" x1="32.5" y1="51.3" x2="13.7" y2="51.3"/>
			<line id="Line_60" class="st40" x1="41.6" y1="47.8" x2="44.9" y2="47.8"/>
			<line id="Line_61" class="st40" x1="47.7" y1="47.8" x2="51.1" y2="47.8"/>
			<line id="Line_62" class="st40" x1="53.8" y1="47.8" x2="57.2" y2="47.8"/>
			<line id="Line_63" class="st40" x1="60" y1="47.8" x2="63.3" y2="47.8"/>
			<line id="Line_64" class="st40" x1="66.1" y1="47.8" x2="69.5" y2="47.8"/>
			<line id="Line_65" class="st40" x1="72.2" y1="47.8" x2="75.6" y2="47.8"/>
			<line id="Line_66" class="st40" x1="41.6" y1="50.4" x2="43.7" y2="50.4"/>
			<line id="Line_67" class="st40" x1="46.6" y1="50.4" x2="48.8" y2="50.4"/>
			<line id="Line_68" class="st40" x1="51.7" y1="50.4" x2="53.8" y2="50.4"/>
			<line id="Line_69" class="st40" x1="56.7" y1="50.4" x2="58.9" y2="50.4"/>
			<line id="Line_70" class="st40" x1="61.7" y1="50.4" x2="63.9" y2="50.4"/>
			<line id="Line_71" class="st40" x1="66.8" y1="50.4" x2="69" y2="50.4"/>
			<line id="Line_72" class="st40" x1="71.8" y1="50.4" x2="74" y2="50.4"/>
			<path id="Path_65" class="st40" d="M16.3,64l-2.4,2.4l2.3,2.3"/>
			<path id="Path_66" class="st40" d="M18.7,64l-2.4,2.4l2.3,2.3"/>
		</g>
		<path id="Rectangle_96" class="st41" d="M272.9,202.6H340l0,0v26.6c0,4.2-3.4,7.5-7.5,7.5h-52.1c-4.2,0-7.5-3.4-7.5-7.5
			c0,0,0,0,0,0V202.6L272.9,202.6z"/>
		<rect id="Rectangle_97" x="279.8" y="212.5" class="st41" width="39" height="14.8"/>
		<rect id="Rectangle_98" x="272.9" y="202.6" class="st41" width="67.1" height="7.7"/>
		<ellipse id="Ellipse_24" class="st41" cx="276" cy="206.2" rx="1.6" ry="1.6"/>
		<path id="Path_67" class="st42" d="M276,207.8c-0.9,0-1.6-0.7-1.6-1.6v0C274.4,207.2,275.1,207.9,276,207.8c0.9,0,1.6-0.7,1.6-1.6
			v0C277.6,207.1,276.9,207.8,276,207.8z"/>
		<ellipse id="Ellipse_25" class="st41" cx="279.8" cy="206.2" rx="1.6" ry="1.6"/>
		<path id="Path_68" class="st42" d="M279.8,207.8c-0.9,0-1.6-0.7-1.6-1.6v0C278.2,207.2,278.9,207.9,279.8,207.8
			c0.9,0,1.6-0.7,1.6-1.6v0C281.4,207.1,280.7,207.8,279.8,207.8z"/>
		<ellipse id="Ellipse_26" class="st41" cx="283.6" cy="206.2" rx="1.6" ry="1.6"/>
		<path id="Path_69" class="st42" d="M283.6,207.8c-0.9,0-1.6-0.7-1.6-1.6v0C282,207.2,282.7,207.9,283.6,207.8
			c0.9,0,1.6-0.7,1.6-1.6v0C285.2,207.1,284.5,207.8,283.6,207.8z"/>
		<rect id="Rectangle_99" x="272.9" y="210.2" class="st43" width="67.1" height="0.1"/>
		<ellipse id="Ellipse_27" class="st42" cx="276" cy="206.2" rx="1.3" ry="1.3"/>
		<ellipse id="Ellipse_28" class="st42" cx="279.8" cy="206.2" rx="1.3" ry="1.3"/>
		<ellipse id="Ellipse_29" class="st42" cx="283.6" cy="206.2" rx="1.3" ry="1.3"/>
		<path id="Rectangle_100" class="st41" d="M275.8,211.4h0.4c0.6,0,1.1,0.5,1.1,1.1v20.1c0,0.6-0.5,1.1-1.1,1.1h-0.4
			c-0.6,0-1.1-0.5-1.1-1.1v-20.1C274.7,211.9,275.2,211.4,275.8,211.4z"/>
		<path id="Rectangle_101" class="st42" d="M275.8,212.5h0.2c0.2,0,0.4,0.2,0.4,0.4v8.4c0,0.2-0.2,0.4-0.4,0.4h-0.2
			c-0.2,0-0.4-0.2-0.4-0.4v-8.4C275.4,212.7,275.6,212.5,275.8,212.5z"/>
		<g id="Group_62" transform="translate(8.171 11.105)">
			<g id="Group_49" transform="translate(0)">
				<path id="Path_70" class="st40" d="M285.4,203h-12.3c-0.1,0-0.2-0.1-0.2-0.2c0-0.1,0.1-0.2,0.2-0.2h12.3c0.1,0,0.2,0.1,0.2,0.2
					C285.6,202.9,285.5,203,285.4,203z"/>
			</g>
			<g id="Group_50" transform="translate(13.242)">
				<path id="Path_71" class="st40" d="M274.8,203h-1.7c-0.1,0-0.2-0.1-0.2-0.2c0-0.1,0.1-0.2,0.2-0.2l0,0h1.7
					c0.1,0,0.2,0.1,0.2,0.2C275,202.9,274.9,203,274.8,203z"/>
			</g>
			<g id="Group_51" transform="translate(16.714)">
				<path id="Path_72" class="st40" d="M288,203h-14.9c-0.1,0-0.2-0.1-0.2-0.2c0-0.1,0.1-0.2,0.2-0.2H288c0.1,0,0.2,0.1,0.2,0.2
					C288.2,202.9,288.1,203,288,203L288,203z"/>
			</g>
			<g id="Group_52" transform="translate(0 1.041)">
				<path id="Path_73" class="st40" d="M287.5,203h-14.4c-0.1,0-0.2-0.1-0.2-0.2c0-0.1,0.1-0.2,0.2-0.2h14.4c0.1,0,0.2,0.1,0.2,0.2
					C287.7,202.9,287.6,203,287.5,203z"/>
			</g>
			<g id="Group_53" transform="translate(15.613 0.852)">
				<path id="Path_74" class="st40" d="M285.8,203h-12.7c-0.1,0-0.2-0.1-0.2-0.2c0-0.1,0.1-0.2,0.2-0.2h12.7c0.1,0,0.2,0.1,0.2,0.2
					C286,202.9,285.9,203,285.8,203L285.8,203L285.8,203z"/>
			</g>
			<g id="Group_54" transform="translate(29.211 0.852)">
				<path id="Path_75" class="st40" d="M275.7,203h-2.5c-0.1,0-0.2-0.1-0.2-0.2c0-0.1,0.1-0.2,0.2-0.2h2.5c0.1,0,0.2,0.1,0.2,0.2
					C275.9,202.9,275.8,203,275.7,203z"/>
			</g>
			<g id="Group_55" transform="translate(0.531 2.33)">
				<path id="Path_76" class="st40" d="M289.7,203h-16.6c-0.1,0-0.2-0.1-0.2-0.2c0-0.1,0.1-0.2,0.2-0.2c0,0,0,0,0,0h16.6
					c0.1,0,0.2,0.1,0.2,0.2C290,202.9,289.9,203,289.7,203C289.8,203,289.8,203,289.7,203L289.7,203z"/>
			</g>
			<g id="Group_56" transform="translate(26.557 2.33)">
				<path id="Path_77" class="st40" d="M277,203h-3.9c-0.1,0-0.2-0.1-0.2-0.2c0-0.1,0.1-0.2,0.2-0.2c0,0,0,0,0,0h3.9
					c0.1,0,0.2,0.1,0.2,0.2C277.3,202.9,277.2,203,277,203C277.1,203,277,203,277,203z"/>
			</g>
			<g id="Group_57" transform="translate(12.845 3.488)">
				<path id="Path_78" class="st40" d="M292,203h-18.9c-0.1,0-0.2-0.1-0.2-0.2c0-0.1,0.1-0.2,0.2-0.2H292c0.1,0,0.2,0.1,0.2,0.2
					C292.2,202.9,292.1,203,292,203z"/>
			</g>
			<g id="Group_58" transform="translate(0 5.06)">
				<path id="Path_79" class="st40" d="M290.8,203h-17.7c-0.1,0-0.2-0.1-0.2-0.2c0-0.1,0.1-0.2,0.2-0.2h17.7c0.1,0,0.2,0.1,0.2,0.2
					C291,202.9,290.9,203,290.8,203z"/>
			</g>
			<g id="Group_59" transform="translate(12.845 6.047)">
				<path id="Path_80" class="st40" d="M292.3,203h-19.2c-0.1,0-0.2-0.1-0.2-0.2c0-0.1,0.1-0.2,0.2-0.2h19.2c0.1,0,0.2,0.1,0.2,0.2
					C292.5,202.9,292.4,203,292.3,203z"/>
			</g>
			<g id="Group_60" transform="translate(2.491 6.54)">
				<path id="Path_81" class="st40" d="M278.4,203h-5.3c-0.1,0-0.2-0.1-0.2-0.2c0-0.1,0.1-0.2,0.2-0.2h5.3c0.1,0,0.2,0.1,0.2,0.2
					C278.6,202.9,278.5,203,278.4,203L278.4,203z"/>
			</g>
			<g id="Group_61" transform="translate(0 3.488)">
				<path id="Path_82" class="st40" d="M277.2,203h-4.1c-0.1,0-0.2-0.1-0.2-0.2c0-0.1,0.1-0.2,0.2-0.2c0,0,0,0,0,0h4.1
					c0.1,0,0.2,0.1,0.2,0.2C277.4,202.9,277.3,203,277.2,203z"/>
			</g>
		</g>
		<g id="Group_65" transform="translate(239.272 30.447)">
			<g id="Group_64" transform="translate(0)">
				<path id="Rectangle_102" class="st37" d="M0,0h119.7l0,0v166.1c0,4.2-3.4,7.5-7.5,7.5H7.5c-4.2,0-7.5-3.4-7.5-7.5V0L0,0z"/>
				<rect id="Rectangle_103" x="15.9" y="22.8" class="st37" width="94.8" height="82.9"/>
				<rect id="Rectangle_104" x="15.9" y="128.3" class="st37" width="33.3" height="10.6"/>
				<rect id="Rectangle_105" x="54.2" y="128.3" class="st37" width="56.5" height="10.6"/>
				<rect id="Rectangle_106" x="15.9" y="145.1" class="st37" width="94.8" height="14.7"/>
				<rect id="Rectangle_107" x="0" y="0" class="st37" width="119.7" height="17.8"/>
				<rect id="Rectangle_108" x="0" y="17.4" class="st38" width="119.7" height="0.3"/>
				<ellipse id="Ellipse_33" class="st39" cx="7.2" cy="8.4" rx="2.9" ry="2.9"/>
				<ellipse id="Ellipse_34" class="st39" cx="15.9" cy="8.4" rx="2.9" ry="2.9"/>
				<ellipse id="Ellipse_35" class="st39" cx="24.6" cy="8.4" rx="2.9" ry="2.9"/>
				<path id="Rectangle_109" class="st37" d="M6.7,20.3h0.9c1.4,0,2.4,1.1,2.4,2.4v141.4c0,1.4-1.1,2.4-2.4,2.4H6.7
					c-1.4,0-2.4-1.1-2.4-2.4V22.7C4.2,21.4,5.3,20.3,6.7,20.3z"/>
				<path id="Rectangle_110" class="st39" d="M6.8,22.8h0.4c0.5,0,1,0.4,1,1v19.4c0,0.5-0.4,1-1,1H6.8c-0.5,0-1-0.4-1-1V23.8
					C5.8,23.3,6.2,22.8,6.8,22.8z"/>
				<line id="Line_76" class="st40" x1="19.6" y1="27.7" x2="59.5" y2="27.7"/>
				<line id="Line_77" class="st40" x1="63.3" y1="27.7" x2="69.8" y2="27.7"/>
				<line id="Line_78" class="st40" x1="76.9" y1="27.7" x2="105.3" y2="27.7"/>
				<line id="Line_79" class="st40" x1="19.6" y1="31.8" x2="67.9" y2="31.8"/>
				<line id="Line_80" class="st40" x1="72.6" y1="31" x2="92.2" y2="31"/>
				<line id="Line_81" class="st40" x1="95.9" y1="31" x2="105.9" y2="31"/>
				<line id="Line_82" class="st40" x1="21.7" y1="36.8" x2="78.7" y2="36.8"/>
				<line id="Line_83" class="st40" x1="85.4" y1="36.8" x2="100.9" y2="36.8"/>
				<line id="Line_84" class="st40" x1="105.9" y1="41.4" x2="61.7" y2="41.4"/>
				<line id="Line_85" class="st40" x1="80.7" y1="47.6" x2="19.6" y2="47.6"/>
				<line id="Line_86" class="st40" x1="61.7" y1="51.5" x2="106.9" y2="51.5"/>
				<line id="Line_87" class="st40" x1="105.2" y1="111.9" x2="68" y2="111.9"/>
				<line id="Line_88" class="st40" x1="19.6" y1="41.4" x2="35.8" y2="41.4"/>
				<line id="Line_89" class="st40" x1="45.6" y1="130.7" x2="34.5" y2="130.7"/>
				<line id="Line_90" class="st40" x1="44.6" y1="135.6" x2="18.8" y2="135.6"/>
				<line id="Line_91" class="st40" x1="57.1" y1="130.7" x2="61.7" y2="130.7"/>
				<line id="Line_92" class="st40" x1="65.5" y1="130.7" x2="70.2" y2="130.7"/>
				<line id="Line_93" class="st40" x1="74" y1="130.7" x2="78.6" y2="130.7"/>
				<line id="Line_94" class="st40" x1="82.4" y1="130.7" x2="87" y2="130.7"/>
				<line id="Line_95" class="st40" x1="90.8" y1="130.7" x2="95.4" y2="130.7"/>
				<line id="Line_96" class="st40" x1="99.2" y1="130.7" x2="103.9" y2="130.7"/>
				<line id="Line_97" class="st40" x1="57.1" y1="134.3" x2="60.1" y2="134.3"/>
				<line id="Line_98" class="st40" x1="64.1" y1="134.3" x2="67" y2="134.3"/>
				<line id="Line_99" class="st40" x1="71" y1="134.3" x2="74" y2="134.3"/>
				<line id="Line_100" class="st40" x1="77.9" y1="134.3" x2="80.9" y2="134.3"/>
				<line id="Line_101" class="st40" x1="84.8" y1="134.3" x2="87.8" y2="134.3"/>
				<line id="Line_102" class="st40" x1="91.8" y1="134.3" x2="94.8" y2="134.3"/>
				<line id="Line_103" class="st40" x1="98.7" y1="134.3" x2="101.7" y2="134.3"/>
				<path id="Path_86" class="st40" d="M22.4,148.9l-3.3,3.3l3.2,3.2"/>
				<path id="Path_87" class="st40" d="M25.7,148.9l-3.3,3.3l3.2,3.2"/>
				<line id="Line_104" class="st40" x1="33.9" y1="148.9" x2="103.9" y2="148.9"/>
				<line id="Line_105" class="st40" x1="33.9" y1="152.1" x2="76.3" y2="152.1"/>
				<line id="Line_106" class="st40" x1="33.9" y1="156.7" x2="76.3" y2="156.7"/>
			</g>
		</g>
		<g id="Group_66" transform="translate(351.683 198.649)">
			<path id="Path_93" class="st31" d="M7.2,14.5c-4,0-7.2-3.2-7.2-7.2S3.2,0,7.2,0c4,0,7.2,3.2,7.2,7.2
				C14.5,11.2,11.2,14.5,7.2,14.5z M7.2,1.3C4,1.3,1.3,4,1.3,7.2s2.7,5.9,5.9,5.9c3.3,0,5.9-2.7,5.9-5.9c0,0,0,0,0,0
				C13.2,4,10.5,1.3,7.2,1.3z"/>
		</g>
		<g id="Group_67" transform="translate(32.305 169.48)">
			<path id="Path_94" class="st31" d="M7.2,14.5c-4,0-7.2-3.2-7.2-7.2S3.2,0,7.2,0c4,0,7.2,3.2,7.2,7.2c0,0,0,0,0,0
				C14.5,11.2,11.2,14.5,7.2,14.5z M7.2,1.3C4,1.3,1.3,4,1.3,7.2c0,3.3,2.7,5.9,5.9,5.9c3.3,0,5.9-2.7,5.9-5.9l0,0
				C13.2,4,10.5,1.3,7.2,1.3z"/>
		</g>
		<g id="Group_70" transform="translate(167.882 42.341)">
			<g id="Group_68" transform="translate(0 0)">
				
					<rect id="Rectangle_111" x="7.2" y="-2.3" transform="matrix(0.7071 -0.7071 0.7071 0.7071 -3.4795 8.4007)" class="st31" width="2.4" height="21.4"/>
			</g>
			<g id="Group_69" transform="translate(0 0)">
				
					<rect id="Rectangle_112" x="-2.3" y="7.2" transform="matrix(0.7071 -0.7071 0.7071 0.7071 -3.4796 8.4002)" class="st31" width="21.4" height="2.4"/>
			</g>
		</g>
		<g id="Group_72" transform="translate(26.733 200.579)">
			<path id="Path_96" class="st31" d="M17,34L0,17L17,0l17,17L17,34z M3.4,17L17,30.6L30.6,17L17,3.4L3.4,17z"/>
		</g>
		<g id="Group_2129" transform="translate(58.091 281.098)">
			<path id="Path_96-2" class="st31" d="M17,34L0,17L17,0l17,17L17,34z M3.4,17L17,30.6L30.6,17L17,3.4L3.4,17z"/>
		</g>
		<g id="Group_76" transform="translate(381.275 149.054)">
			<g id="Group_74" transform="translate(0)">
				<path id="Path_98" class="st31" d="M10,20L0,10L10,0l1,1L2.1,10l8.9,8.9L10,20z"/>
			</g>
			<g id="Group_75" transform="translate(7.69)">
				<path id="Path_99" class="st31" d="M10,20L0,10L10,0l1,1L2.1,10l8.9,8.9L10,20z"/>
			</g>
		</g>
		<g id="Group_2126" transform="translate(97.766 308.521)">
			<g id="Group_74-2" transform="translate(7.69)">
				<path id="Path_98-2" class="st31" d="M1,20l10-10L1,0L0,1L8.9,10L0,18.9L1,20z"/>
			</g>
			<g id="Group_75-2" transform="translate(0)">
				<path id="Path_99-2" class="st31" d="M1,20l10-10L1,0L0,1L8.9,10L0,18.9L1,20z"/>
			</g>
		</g>
		<g id="Group_79" transform="translate(219.544 79.156)">
			<g id="Group_77" transform="translate(0)">
				<path id="Path_100" class="st31" d="M10,20L0,10L10,0l1,1L2.1,10l8.9,8.9L10,20z"/>
			</g>
			<g id="Group_78" transform="translate(7.69)">
				<path id="Path_101" class="st31" d="M10,20L0,10L10,0l1,1L2.1,10l8.9,8.9L10,20z"/>
			</g>
		</g>
		<g id="Group_81" transform="translate(372.61 109.245)">
			<path id="Path_103" class="st31" d="M12.1,16.3h-7c-1,0-1.8-0.8-1.8-1.8v-4.1H1.7C0.8,10.3,0,9.6,0,8.7c0-0.4,0.2-0.9,0.5-1.2
				l7-7c0.7-0.7,1.7-0.7,2.4,0l7,7c0.7,0.7,0.7,1.7,0,2.4c-0.3,0.3-0.7,0.5-1.2,0.5H14v4.1C14,15.4,13.2,16.3,12.1,16.3z M8.7,1.2
				c-0.1,0-0.3,0.1-0.3,0.1l-7,7C1.1,8.5,1.1,8.8,1.3,9c0.1,0.1,0.2,0.1,0.3,0.1h2.9v5.3c0,0.3,0.3,0.6,0.6,0.6l0,0h7
				c0.3,0,0.6-0.3,0.6-0.6V9.2h2.9c0.3,0,0.5-0.2,0.5-0.5c0-0.1-0.1-0.3-0.1-0.3l-7-7C8.9,1.2,8.8,1.2,8.7,1.2L8.7,1.2z"/>
		</g>
	</g>
</g>
</svg>
